<?xml version="1.0" encoding="UTF-8" standalone="no" ?>
<!DOCTYPE svg PUBLIC "-//W3C//DTD SVG 1.1//EN" "http://www.w3.org/Graphics/SVG/1.1/DTD/svg11.dtd">
<svg xmlns="http://www.w3.org/2000/svg" xmlns:xlink="http://www.w3.org/1999/xlink" version="1.1" width="16" height="16" viewBox="0 0 16 16" xml:space="preserve">
<desc>Created with Fabric.js 5.2.4</desc>
<defs>
</defs>
<g id="dfda2c13-0d78-41af-8a16-09d0894a9d03"  >
</g>
<g transform="matrix(1 0 0 1 8 8)" id="eb4d0143-de04-463d-88e1-03497fbed21a"  >
<rect style="stroke: none; stroke-width: 1; stroke-dasharray: none; stroke-linecap: butt; stroke-dashoffset: 0; stroke-linejoin: miter; stroke-miterlimit: 4; fill: rgb(7,7,7); fill-rule: nonzero; opacity: 1;" vector-effect="non-scaling-stroke"  x="-8" y="-8" rx="0" ry="0" width="16" height="16" />
</g>
<g transform="matrix(0.5 0 0 0.5 8 8)"  >
<g style=""   >
		<g transform="matrix(1 0 0 1 -5 -4)"  >
<path style="stroke: none; stroke-width: 1; stroke-dasharray: none; stroke-linecap: butt; stroke-dashoffset: 0; stroke-linejoin: miter; stroke-miterlimit: 4; fill: rgb(255,255,255); fill-rule: nonzero; opacity: 1;" vector-effect="non-scaling-stroke"  transform=" translate(-11, -12)" d="M 11 22 C 5.477152501692066 22 1 17.522847498307932 1 12 C 1 6.477152501692066 5.477152501692066 2 11 2 C 16.522847498307932 2 21 6.477152501692064 21 11.999999999999998 C 21 17.522847498307932 16.522847498307932 22 11 22 Z M 11 4 C 6.581722001353652 4 3 7.581722001353652 3 12 C 3 16.418277998646346 6.581722001353652 20 11 20 C 15.418277998646348 20 19 16.418277998646346 19 12 C 19 7.581722001353652 15.418277998646348 4 11 4 Z" stroke-linecap="round" />
</g>
		<g transform="matrix(1 0 0 1 8.94 8.17)"  >
<path style="stroke: none; stroke-width: 1; stroke-dasharray: none; stroke-linecap: butt; stroke-dashoffset: 0; stroke-linejoin: miter; stroke-miterlimit: 4; fill: rgb(255,255,255); fill-rule: nonzero; opacity: 1;" vector-effect="non-scaling-stroke"  transform=" translate(-24.94, -24.17)" d="M 28 29.74 C 27.294362991586695 29.74090815670225 26.610988236756913 29.49305202800751 26.07 29.04 L 19.94 23.9 C 18.669745075389176 22.834090432826567 18.50409043282657 20.940254924610823 19.57 19.669999999999998 C 20.63590956717343 18.399745075389173 22.529745075389176 18.234090432826566 23.8 19.299999999999997 L 29.93 24.439999999999998 C 30.897869390624063 25.250540523352505 31.254749209527784 26.580278931171858 30.82278105487028 27.766512723754644 C 30.390812900212776 28.952746516337434 29.26243591890089 29.741627259172613 28 29.74 Z M 21.87 20.6 L 21.78 20.6 C 21.37422028672689 20.63411509226253 21.02965393028739 20.91087594244267 20.9088186319396 21.299745902580103 C 20.78798333359181 21.688615862717537 20.915015772308006 22.111918711392384 21.23 22.37 L 27.36 27.51 C 27.562822533890717 27.68122422707832 27.825397798693768 27.764787386677693 28.089874783584047 27.74227870711256 C 28.354351768474327 27.71977002754743 28.599029434858025 27.5930364057194 28.77 27.39 C 28.940438419097813 27.186794944707138 29.023172044383077 26.924205612279994 29 26.66 C 28.975492734000564 26.394392235971676 28.845887741796716 26.149582806253292 28.64 25.98 L 22.51 20.83 C 22.330087940856856 20.680918846424966 22.10365215807319 20.599543486987084 21.87 20.6 Z" stroke-linecap="round" />
</g>
		<g transform="matrix(1 0 0 1 2.81 3.03)"  >
<path style="stroke: none; stroke-width: 1; stroke-dasharray: none; stroke-linecap: butt; stroke-dashoffset: 0; stroke-linejoin: miter; stroke-miterlimit: 4; fill: rgb(255,255,255); fill-rule: nonzero; opacity: 1;" vector-effect="non-scaling-stroke"  transform=" translate(-18.81, -19.02)" d="M 20 21 C 19.766347841926812 21.000456513012917 19.539912059143145 20.919081153575036 19.36 20.77 L 17 18.82 C 16.57474074263029 18.46653776010829 16.516537760108292 17.83525925736971 16.87 17.41 C 17.22346223989171 16.98474074263029 17.85474074263029 16.926537760108292 18.28 17.28 L 20.62 19.23 C 20.824507131488946 19.39954816491875 20.953147838594347 19.64350078125014 20.977536920053005 19.9080285109171 C 21.00192600151166 20.172556240584058 20.92005890290863 20.435917378009137 20.75 20.64 C 20.56414937645521 20.863230890216705 20.290419615156136 20.994621175640262 20 21 Z" stroke-linecap="round" />
</g>
</g>
</g>
</svg>